<svg width="135" height="66" viewBox="0 0 135 66" fill="none" xmlns="http://www.w3.org/2000/svg">
<g filter="url(#filter0_d_0_1)">
<line x1="4" y1="1" x2="46" y2="1" stroke="black" stroke-width="2"/>
</g>
<g filter="url(#filter1_d_0_1)">
<line x1="5" y1="5.04362e-08" x2="5" y2="45" stroke="black" stroke-width="2"/>
</g>
<g filter="url(#filter2_d_0_1)">
<line x1="46" y1="5.3973e-08" x2="46" y2="45" stroke="black" stroke-width="2"/>
</g>
<g filter="url(#filter3_d_0_1)">
<line x1="4" y1="44" x2="17" y2="44" stroke="black" stroke-width="2"/>
</g>
<g filter="url(#filter4_d_0_1)">
<line x1="19" y1="44" x2="45" y2="44" stroke="black" stroke-width="2"/>
</g>
<g filter="url(#filter5_d_0_1)">
<line x1="17" y1="16" x2="45" y2="16" stroke="#FFDF00" stroke-width="2"/>
</g>
<g filter="url(#filter6_d_0_1)">
<line x1="47" y1="16" x2="58" y2="16" stroke="#FFDF00" stroke-width="2"/>
</g>
<g filter="url(#filter7_d_0_1)">
<line x1="18" y1="16" x2="18" y2="45" stroke="#FFDF00" stroke-width="2"/>
</g>
<g filter="url(#filter8_d_0_1)">
<line x1="18" y1="45" x2="18" y2="57" stroke="#FFDF00" stroke-width="2"/>
</g>
<g filter="url(#filter9_d_0_1)">
<line x1="17.5" y1="43" x2="17.5" y2="45" stroke="#FFDF00"/>
</g>
<g filter="url(#filter10_d_0_1)">
<line x1="57" y1="16" x2="57" y2="58" stroke="#FFDF00" stroke-width="2"/>
</g>
<g filter="url(#filter11_d_0_1)">
<line x1="17" y1="57" x2="57" y2="57" stroke="#FFDF00" stroke-width="2"/>
</g>
<g filter="url(#filter12_d_0_1)">
<path d="M34.4375 40L27.4375 30.6534H24.9318V40H22.4659V19.6364H24.9318V28.4659H26.0057L34.1591 19.6364H37.1023L28.8693 28.5852L37.3807 40H34.4375ZM44.7436 40.358C43.7758 40.358 42.8975 40.1757 42.1087 39.8111C41.3198 39.4399 40.6934 38.9062 40.2294 38.2102C39.7654 37.5076 39.5334 36.6591 39.5334 35.6648C39.5334 34.7898 39.7057 34.0805 40.0504 33.5369C40.3951 32.9867 40.8558 32.5559 41.4325 32.2443C42.0092 31.9328 42.6456 31.7008 43.3416 31.5483C44.0443 31.3892 44.7502 31.2633 45.4595 31.1705C46.3875 31.0511 47.1399 30.9616 47.7166 30.902C48.3 30.8357 48.7242 30.7263 48.9893 30.5739C49.2611 30.4214 49.397 30.1562 49.397 29.7784V29.6989C49.397 28.7178 49.1286 27.9555 48.5916 27.4119C48.0613 26.8684 47.2559 26.5966 46.1754 26.5966C45.0552 26.5966 44.1768 26.8419 43.5405 27.3324C42.9041 27.8229 42.4567 28.3466 42.1982 28.9034L39.9709 28.108C40.3686 27.1799 40.8989 26.4574 41.5618 25.9403C42.2313 25.4167 42.9605 25.0521 43.7493 24.8466C44.5447 24.6345 45.3269 24.5284 46.0959 24.5284C46.5864 24.5284 47.1499 24.5881 47.7862 24.7074C48.4292 24.8201 49.049 25.0554 49.6456 25.4134C50.2488 25.7713 50.7493 26.3116 51.147 27.0341C51.5447 27.7566 51.7436 28.7244 51.7436 29.9375V40H49.397V37.9318H49.2777C49.1186 38.2633 48.8535 38.6179 48.4822 38.9957C48.111 39.3736 47.6172 39.6951 47.0007 39.9602C46.3842 40.2254 45.6319 40.358 44.7436 40.358ZM45.1016 38.25C46.0296 38.25 46.8118 38.0677 47.4482 37.7031C48.0911 37.3385 48.575 36.8679 48.8999 36.2912C49.2313 35.7145 49.397 35.108 49.397 34.4716V32.3239C49.2976 32.4432 49.0788 32.5526 48.7408 32.652C48.4093 32.7448 48.0249 32.8277 47.5874 32.9006C47.1565 32.9669 46.7356 33.0265 46.3246 33.0795C45.9202 33.1259 45.5921 33.1657 45.3402 33.1989C44.7304 33.2784 44.1603 33.4077 43.63 33.5866C43.1063 33.759 42.6821 34.0208 42.3572 34.3722C42.0391 34.7169 41.88 35.1875 41.88 35.7841C41.88 36.5994 42.1816 37.2159 42.7848 37.6335C43.3946 38.0445 44.1669 38.25 45.1016 38.25ZM56.0266 45.7273V24.7273H58.2937V27.1534H58.5721C58.7444 26.8883 58.9831 26.5502 59.288 26.1392C59.5996 25.7216 60.0437 25.3504 60.6204 25.0256C61.2037 24.6941 61.9925 24.5284 62.9869 24.5284C64.2728 24.5284 65.4064 24.8499 66.3874 25.4929C67.3685 26.1359 68.1341 27.0473 68.6843 28.2273C69.2345 29.4072 69.5096 30.7992 69.5096 32.4034C69.5096 34.0208 69.2345 35.4228 68.6843 36.6094C68.1341 37.7893 67.3718 38.7041 66.3974 39.3537C65.4229 39.9967 64.2994 40.3182 63.0266 40.3182C62.0456 40.3182 61.2601 40.1558 60.6701 39.831C60.0801 39.4995 59.6261 39.125 59.3079 38.7074C58.9897 38.2831 58.7444 37.9318 58.5721 37.6534H58.3732V45.7273H56.0266ZM58.3335 32.3636C58.3335 33.517 58.5025 34.5346 58.8406 35.4162C59.1786 36.2912 59.6725 36.9773 60.3221 37.4744C60.9717 37.965 61.7672 38.2102 62.7085 38.2102C63.6895 38.2102 64.5082 37.9517 65.1644 37.4347C65.8273 36.911 66.3245 36.2083 66.6559 35.3267C66.994 34.4384 67.163 33.4508 67.163 32.3636C67.163 31.2898 66.9973 30.322 66.6658 29.4602C66.341 28.5919 65.8472 27.9058 65.1843 27.402C64.5281 26.8916 63.7028 26.6364 62.7085 26.6364C61.7539 26.6364 60.9518 26.8783 60.3022 27.3622C59.6526 27.8395 59.1621 28.509 58.8306 29.3707C58.4992 30.2259 58.3335 31.2235 58.3335 32.3636ZM77.5835 40.358C76.6156 40.358 75.7373 40.1757 74.9485 39.8111C74.1597 39.4399 73.5333 38.9062 73.0692 38.2102C72.6052 37.5076 72.3732 36.6591 72.3732 35.6648C72.3732 34.7898 72.5456 34.0805 72.8903 33.5369C73.235 32.9867 73.6957 32.5559 74.2724 32.2443C74.8491 31.9328 75.4854 31.7008 76.1815 31.5483C76.8841 31.3892 77.5901 31.2633 78.2994 31.1705C79.2274 31.0511 79.9798 30.9616 80.5565 30.902C81.1398 30.8357 81.564 30.7263 81.8292 30.5739C82.101 30.4214 82.2369 30.1562 82.2369 29.7784V29.6989C82.2369 28.7178 81.9684 27.9555 81.4315 27.4119C80.9012 26.8684 80.0958 26.5966 79.0153 26.5966C77.895 26.5966 77.0167 26.8419 76.3803 27.3324C75.744 27.8229 75.2965 28.3466 75.038 28.9034L72.8107 28.108C73.2085 27.1799 73.7388 26.4574 74.4016 25.9403C75.0711 25.4167 75.8003 25.0521 76.5891 24.8466C77.3846 24.6345 78.1668 24.5284 78.9357 24.5284C79.4263 24.5284 79.9897 24.5881 80.6261 24.7074C81.2691 24.8201 81.8888 25.0554 82.4854 25.4134C83.0887 25.7713 83.5891 26.3116 83.9869 27.0341C84.3846 27.7566 84.5835 28.7244 84.5835 29.9375V40H82.2369V37.9318H82.1175C81.9585 38.2633 81.6933 38.6179 81.3221 38.9957C80.9509 39.3736 80.457 39.6951 79.8406 39.9602C79.2241 40.2254 78.4717 40.358 77.5835 40.358ZM77.9414 38.25C78.8694 38.25 79.6516 38.0677 80.288 37.7031C80.931 37.3385 81.4149 36.8679 81.7397 36.2912C82.0711 35.7145 82.2369 35.108 82.2369 34.4716V32.3239C82.1374 32.4432 81.9187 32.5526 81.5806 32.652C81.2492 32.7448 80.8647 32.8277 80.4272 32.9006C79.9963 32.9669 79.5754 33.0265 79.1644 33.0795C78.7601 33.1259 78.4319 33.1657 78.18 33.1989C77.5702 33.2784 77.0001 33.4077 76.4698 33.5866C75.9461 33.759 75.5219 34.0208 75.1971 34.3722C74.8789 34.7169 74.7198 35.1875 74.7198 35.7841C74.7198 36.5994 75.0214 37.2159 75.6246 37.6335C76.2345 38.0445 77.0067 38.25 77.9414 38.25ZM88.8665 40V24.7273H91.2131V31.3693H92.7642L98.2528 24.7273H101.276L95.1108 32.0852L101.355 40H98.3324L93.321 33.5568H91.2131V40H88.8665ZM108.4 40.358C107.432 40.358 106.554 40.1757 105.765 39.8111C104.976 39.4399 104.35 38.9062 103.886 38.2102C103.422 37.5076 103.19 36.6591 103.19 35.6648C103.19 34.7898 103.362 34.0805 103.707 33.5369C104.051 32.9867 104.512 32.5559 105.089 32.2443C105.665 31.9328 106.302 31.7008 106.998 31.5483C107.701 31.3892 108.406 31.2633 109.116 31.1705C110.044 31.0511 110.796 30.9616 111.373 30.902C111.956 30.8357 112.38 30.7263 112.646 30.5739C112.917 30.4214 113.053 30.1562 113.053 29.7784V29.6989C113.053 28.7178 112.785 27.9555 112.248 27.4119C111.718 26.8684 110.912 26.5966 109.832 26.5966C108.711 26.5966 107.833 26.8419 107.197 27.3324C106.56 27.8229 106.113 28.3466 105.854 28.9034L103.627 28.108C104.025 27.1799 104.555 26.4574 105.218 25.9403C105.888 25.4167 106.617 25.0521 107.406 24.8466C108.201 24.6345 108.983 24.5284 109.752 24.5284C110.243 24.5284 110.806 24.5881 111.442 24.7074C112.085 24.8201 112.705 25.0554 113.302 25.4134C113.905 25.7713 114.406 26.3116 114.803 27.0341C115.201 27.7566 115.4 28.7244 115.4 29.9375V40H113.053V37.9318H112.934C112.775 38.2633 112.51 38.6179 112.138 38.9957C111.767 39.3736 111.273 39.6951 110.657 39.9602C110.04 40.2254 109.288 40.358 108.4 40.358ZM108.758 38.25C109.686 38.25 110.468 38.0677 111.104 37.7031C111.747 37.3385 112.231 36.8679 112.556 36.2912C112.888 35.7145 113.053 35.108 113.053 34.4716V32.3239C112.954 32.4432 112.735 32.5526 112.397 32.652C112.066 32.7448 111.681 32.8277 111.244 32.9006C110.813 32.9669 110.392 33.0265 109.981 33.0795C109.576 33.1259 109.248 33.1657 108.996 33.1989C108.387 33.2784 107.817 33.4077 107.286 33.5866C106.763 33.759 106.338 34.0208 106.013 34.3722C105.695 34.7169 105.536 35.1875 105.536 35.7841C105.536 36.5994 105.838 37.2159 106.441 37.6335C107.051 38.0445 107.823 38.25 108.758 38.25ZM117.605 26.9148V24.7273H130.014V26.9148H125.002V40H122.656V26.9148H117.605Z" fill="#FFDF00"/>
<path d="M34.4375 40L34.0373 40.2997L34.1873 40.5H34.4375V40ZM27.4375 30.6534L27.8377 30.3537L27.6877 30.1534H27.4375V30.6534ZM24.9318 30.6534V30.1534H24.4318V30.6534H24.9318ZM24.9318 40V40.5H25.4318V40H24.9318ZM22.4659 40H21.9659V40.5H22.4659V40ZM22.4659 19.6364V19.1364H21.9659V19.6364H22.4659ZM24.9318 19.6364H25.4318V19.1364H24.9318V19.6364ZM24.9318 28.4659H24.4318V28.9659H24.9318V28.4659ZM26.0057 28.4659V28.9659H26.2245L26.373 28.8051L26.0057 28.4659ZM34.1591 19.6364V19.1364H33.9402L33.7918 19.2972L34.1591 19.6364ZM37.1023 19.6364L37.4702 19.9749L38.2417 19.1364H37.1023V19.6364ZM28.8693 28.5852L28.5014 28.2467L28.2207 28.5518L28.4685 28.8841L28.8693 28.5852ZM37.3807 40V40.5H38.3772L37.7815 39.7011L37.3807 40ZM34.8377 39.7003L27.8377 30.3537L27.0373 30.9531L34.0373 40.2997L34.8377 39.7003ZM27.4375 30.1534H24.9318V31.1534H27.4375V30.1534ZM24.4318 30.6534V40H25.4318V30.6534H24.4318ZM24.9318 39.5H22.4659V40.5H24.9318V39.5ZM22.9659 40V19.6364H21.9659V40H22.9659ZM22.4659 20.1364H24.9318V19.1364H22.4659V20.1364ZM24.4318 19.6364V28.4659H25.4318V19.6364H24.4318ZM24.9318 28.9659H26.0057V27.9659H24.9318V28.9659ZM26.373 28.8051L34.5264 19.9756L33.7918 19.2972L25.6383 28.1267L26.373 28.8051ZM34.1591 20.1364H37.1023V19.1364H34.1591V20.1364ZM36.7343 19.2978L28.5014 28.2467L29.2373 28.9238L37.4702 19.9749L36.7343 19.2978ZM28.4685 28.8841L36.9798 40.2989L37.7815 39.7011L29.2702 28.2863L28.4685 28.8841ZM37.3807 39.5H34.4375V40.5H37.3807V39.5ZM42.1087 39.8111L41.8958 40.2635L41.8989 40.2649L42.1087 39.8111ZM40.2294 38.2102L39.8122 38.4858L39.8134 38.4876L40.2294 38.2102ZM40.0504 33.5369L40.4727 33.8047L40.4741 33.8024L40.0504 33.5369ZM41.4325 32.2443L41.1949 31.8044L41.4325 32.2443ZM43.3416 31.5483L43.4486 32.0367L43.452 32.036L43.3416 31.5483ZM45.4595 31.1705L45.3958 30.6745L45.3946 30.6747L45.4595 31.1705ZM47.7166 30.902L47.7681 31.3994L47.7731 31.3988L47.7166 30.902ZM48.9893 30.5739L48.7447 30.1378L48.7401 30.1404L48.9893 30.5739ZM48.5916 27.4119L48.2337 27.7611L48.2359 27.7633L48.5916 27.4119ZM43.5405 27.3324L43.8457 27.7284L43.5405 27.3324ZM42.1982 28.9034L42.03 29.3743L42.4596 29.5277L42.6517 29.114L42.1982 28.9034ZM39.9709 28.108L39.5113 27.911L39.3018 28.3999L39.8027 28.5788L39.9709 28.108ZM41.5618 25.9403L41.8693 26.3346L41.8698 26.3342L41.5618 25.9403ZM43.7493 24.8466L43.8753 25.3305L43.8781 25.3297L43.7493 24.8466ZM47.7862 24.7074L47.6941 25.1989L47.6999 25.1999L47.7862 24.7074ZM49.6456 25.4134L49.3883 25.8421L49.3904 25.8433L49.6456 25.4134ZM51.147 27.0341L50.709 27.2752L51.147 27.0341ZM51.7436 40V40.5H52.2436V40H51.7436ZM49.397 40H48.897V40.5H49.397V40ZM49.397 37.9318H49.897V37.4318H49.397V37.9318ZM49.2777 37.9318V37.4318H48.9631L48.8269 37.7155L49.2777 37.9318ZM48.4822 38.9957L48.8389 39.3461L48.4822 38.9957ZM47.0007 39.9602L46.8032 39.5009L47.0007 39.9602ZM47.4482 37.7031L47.2015 37.2682L47.1996 37.2693L47.4482 37.7031ZM48.8999 36.2912L48.4663 36.042L48.4642 36.0458L48.8999 36.2912ZM49.397 32.3239H49.897V30.9428L49.0129 32.0038L49.397 32.3239ZM48.7408 32.652L48.8756 33.1335L48.8818 33.1317L48.7408 32.652ZM47.5874 32.9006L47.6634 33.3948L47.6696 33.3938L47.5874 32.9006ZM46.3246 33.0795L46.3816 33.5763L46.3886 33.5754L46.3246 33.0795ZM45.3402 33.1989L45.4049 33.6947L45.4054 33.6946L45.3402 33.1989ZM43.63 33.5866L43.7863 34.0616L43.7899 34.0604L43.63 33.5866ZM42.3572 34.3722L41.9901 34.0327L41.9898 34.033L42.3572 34.3722ZM42.7848 37.6335L42.5002 38.0447L42.5054 38.0482L42.7848 37.6335ZM44.7436 39.858C43.84 39.858 43.0344 39.6881 42.3184 39.3572L41.8989 40.2649C42.7606 40.6632 43.7117 40.858 44.7436 40.858V39.858ZM42.3216 39.3587C41.6115 39.0245 41.0568 38.5499 40.6454 37.9329L39.8134 38.4876C40.3301 39.2626 41.0282 39.8552 41.8958 40.2635L42.3216 39.3587ZM40.6466 37.9347C40.2458 37.3277 40.0334 36.5792 40.0334 35.6648H39.0334C39.0334 36.739 39.285 37.6875 39.8122 38.4858L40.6466 37.9347ZM40.0334 35.6648C40.0334 34.8516 40.1939 34.2442 40.4727 33.8047L39.6282 33.2692C39.2175 33.9167 39.0334 34.728 39.0334 35.6648H40.0334ZM40.4741 33.8024C40.7725 33.3262 41.1688 32.9551 41.6702 32.6842L41.1949 31.8044C40.5429 32.1566 40.0178 32.6473 39.6267 33.2715L40.4741 33.8024ZM41.6702 32.6842C42.2024 32.3967 42.7943 32.18 43.4486 32.0367L43.2346 31.0599C42.4969 31.2215 41.8161 31.4688 41.1949 31.8044L41.6702 32.6842ZM43.452 32.036C44.1397 31.8802 44.8305 31.757 45.5244 31.6662L45.3946 30.6747C44.67 30.7695 43.9488 30.8982 43.2312 31.0606L43.452 32.036ZM45.5233 31.6664C46.4494 31.5473 47.1972 31.4584 47.7681 31.3993L47.6652 30.4046C47.0827 30.4649 46.3257 30.555 45.3958 30.6745L45.5233 31.6664ZM47.7731 31.3988C48.3733 31.3306 48.8818 31.2125 49.2386 31.0073L48.7401 30.1404C48.5666 30.2402 48.2266 30.3408 47.6602 30.4052L47.7731 31.3988ZM49.234 31.0099C49.6995 30.7488 49.897 30.2916 49.897 29.7784H48.897C48.897 30.0209 48.8228 30.094 48.7447 30.1378L49.234 31.0099ZM49.897 29.7784V29.6989H48.897V29.7784H49.897ZM49.897 29.6989C49.897 28.6253 49.6009 27.7222 48.9473 27.0606L48.2359 27.7633C48.6562 28.1888 48.897 28.8103 48.897 29.6989H49.897ZM48.9495 27.0628C48.2913 26.3881 47.333 26.0966 46.1754 26.0966V27.0966C47.1789 27.0966 47.8314 27.3487 48.2337 27.7611L48.9495 27.0628ZM46.1754 26.0966C44.9874 26.0966 43.9877 26.3563 43.2352 26.9364L43.8457 27.7284C44.366 27.3274 45.1229 27.0966 46.1754 27.0966V26.0966ZM43.2352 26.9364C42.5542 27.4613 42.0458 28.0442 41.7446 28.6929L42.6517 29.114C42.8676 28.6489 43.254 28.1845 43.8457 27.7284L43.2352 26.9364ZM42.3663 28.4325L40.139 27.6371L39.8027 28.5788L42.03 29.3743L42.3663 28.4325ZM40.4305 28.3049C40.8016 27.4389 41.2851 26.7903 41.8693 26.3346L41.2543 25.5461C40.5127 26.1245 39.9356 26.921 39.5113 27.911L40.4305 28.3049ZM41.8698 26.3342C42.4878 25.8508 43.1555 25.518 43.8753 25.3304L43.6232 24.3627C42.7654 24.5862 41.9748 24.9825 41.2537 25.5465L41.8698 26.3342ZM43.8781 25.3297C44.6345 25.128 45.3734 25.0284 46.0959 25.0284V24.0284C45.2805 24.0284 44.455 24.1409 43.6205 24.3635L43.8781 25.3297ZM46.0959 25.0284C46.5475 25.0284 47.0791 25.0835 47.6941 25.1988L47.8784 24.2159C47.2206 24.0926 46.6253 24.0284 46.0959 24.0284V25.0284ZM47.6999 25.1999C48.2786 25.3013 48.8409 25.5136 49.3883 25.8421L49.9028 24.9846C49.2572 24.5972 48.5798 24.3388 47.8725 24.2149L47.6999 25.1999ZM49.3904 25.8433C49.9044 26.1483 50.3466 26.6169 50.709 27.2752L51.585 26.793C51.1519 26.0062 50.5932 25.3943 49.9008 24.9834L49.3904 25.8433ZM50.709 27.2752C51.0514 27.8972 51.2436 28.7719 51.2436 29.9375H52.2436C52.2436 28.677 52.0381 27.6161 51.585 26.793L50.709 27.2752ZM51.2436 29.9375V40H52.2436V29.9375H51.2436ZM51.7436 39.5H49.397V40.5H51.7436V39.5ZM49.897 40V37.9318H48.897V40H49.897ZM49.397 37.4318H49.2777V38.4318H49.397V37.4318ZM48.8269 37.7155C48.6996 37.9807 48.4737 38.2909 48.1256 38.6453L48.8389 39.3461C49.2332 38.9449 49.5376 38.5458 49.7285 38.1482L48.8269 37.7155ZM48.1256 38.6453C47.8102 38.9663 47.3753 39.2548 46.8032 39.5009L47.1983 40.4195C47.8591 40.1353 48.4119 39.7808 48.8389 39.3461L48.1256 38.6453ZM46.8032 39.5009C46.2658 39.732 45.5848 39.858 44.7436 39.858V40.858C45.6789 40.858 46.5027 40.7187 47.1983 40.4195L46.8032 39.5009ZM45.1016 38.75C46.094 38.75 46.9671 38.555 47.6967 38.137L47.1996 37.2693C46.6565 37.5805 45.9651 37.75 45.1016 37.75V38.75ZM47.6948 38.1381C48.4074 37.734 48.961 37.2015 49.3355 36.5366L48.4642 36.0458C48.1891 36.5343 47.7749 36.9431 47.2015 37.2682L47.6948 38.1381ZM49.3334 36.5403C49.7063 35.8914 49.897 35.1994 49.897 34.4716H48.897C48.897 35.0165 48.7563 35.5376 48.4664 36.0421L49.3334 36.5403ZM49.897 34.4716V32.3239H48.897V34.4716H49.897ZM49.0129 32.0038C49.0254 31.9888 49.014 32.0085 48.9348 32.0482C48.8606 32.0852 48.7516 32.1276 48.5997 32.1723L48.8818 33.1317C49.068 33.0769 49.2374 33.0149 49.382 32.9426C49.5215 32.8729 49.6692 32.7783 49.7811 32.644L49.0129 32.0038ZM48.606 32.1705C48.2959 32.2573 47.9297 32.3366 47.5052 32.4074L47.6696 33.3938C48.12 33.3187 48.5227 33.2323 48.8756 33.1335L48.606 32.1705ZM47.5113 32.4064C47.0843 32.4721 46.6674 32.5312 46.2606 32.5837L46.3886 33.5754C46.8038 33.5219 47.2287 33.4616 47.6634 33.3948L47.5113 32.4064ZM46.2676 32.5828C45.8619 32.6294 45.5307 32.6695 45.275 32.7031L45.4054 33.6946C45.6535 33.662 45.9785 33.6225 46.3816 33.5763L46.2676 32.5828ZM45.2755 32.7031C44.6364 32.7864 44.0342 32.9225 43.4701 33.1129L43.7899 34.0604C44.2864 33.8928 44.8243 33.7704 45.4049 33.6947L45.2755 32.7031ZM43.4737 33.1117C42.8817 33.3065 42.3808 33.6101 41.9901 34.0327L42.7244 34.7116C42.9833 34.4315 43.3308 34.2115 43.7863 34.0616L43.4737 33.1117ZM41.9898 34.033C41.5651 34.4932 41.38 35.0972 41.38 35.7841H42.38C42.38 35.2778 42.5131 34.9405 42.7246 34.7113L41.9898 34.033ZM41.38 35.7841C41.38 36.7422 41.7454 37.5221 42.5002 38.0446L43.0694 37.2224C42.6177 36.9097 42.38 36.4567 42.38 35.7841H41.38ZM42.5054 38.0482C43.2176 38.5281 44.0942 38.75 45.1016 38.75V37.75C44.2396 37.75 43.5717 37.5609 43.0642 37.2189L42.5054 38.0482ZM56.0266 45.7273H55.5266V46.2273H56.0266V45.7273ZM56.0266 24.7273V24.2273H55.5266V24.7273H56.0266ZM58.2937 24.7273H58.7937V24.2273H58.2937V24.7273ZM58.2937 27.1534H57.7937V27.6534H58.2937V27.1534ZM58.5721 27.1534V27.6534H58.8434L58.9913 27.4259L58.5721 27.1534ZM59.288 26.1392L58.8872 25.8402L58.8864 25.8413L59.288 26.1392ZM60.6204 25.0256L60.8658 25.4612L60.8674 25.4603L60.6204 25.0256ZM66.3874 25.4929L66.6615 25.0747V25.0747L66.3874 25.4929ZM68.6843 28.2273L69.1375 28.016V28.016L68.6843 28.2273ZM68.6843 36.6094L69.1375 36.8207L69.1379 36.8197L68.6843 36.6094ZM66.3974 39.3537L66.6728 39.771L66.6747 39.7697L66.3974 39.3537ZM60.6701 39.831L60.4252 40.2669L60.429 40.269L60.6701 39.831ZM59.3079 38.7074L58.9079 39.0074L58.9102 39.0104L59.3079 38.7074ZM58.5721 37.6534L58.9972 37.3902L58.8506 37.1534H58.5721V37.6534ZM58.3732 37.6534V37.1534H57.8732V37.6534H58.3732ZM58.3732 45.7273V46.2273H58.8732V45.7273H58.3732ZM58.8406 35.4162L58.3737 35.5952L58.3742 35.5964L58.8406 35.4162ZM60.3221 37.4744L60.0182 37.8715L60.0208 37.8735L60.3221 37.4744ZM65.1644 37.4347L65.4739 37.8274L65.4744 37.827L65.1644 37.4347ZM66.6559 35.3267L66.1886 35.1488L66.1879 35.1508L66.6559 35.3267ZM66.6658 29.4602L66.1975 29.6354L66.1992 29.6397L66.6658 29.4602ZM65.1843 27.402L64.8773 27.7967L64.8818 27.8001L65.1843 27.402ZM60.3022 27.3622L60.5982 27.7652L60.6009 27.7632L60.3022 27.3622ZM58.8306 29.3707L59.2968 29.5514L59.2973 29.5502L58.8306 29.3707ZM56.5266 45.7273V24.7273H55.5266V45.7273H56.5266ZM56.0266 25.2273H58.2937V24.2273H56.0266V25.2273ZM57.7937 24.7273V27.1534H58.7937V24.7273H57.7937ZM58.2937 27.6534H58.5721V26.6534H58.2937V27.6534ZM58.9913 27.4259C59.1557 27.173 59.3875 26.8442 59.6895 26.4371L58.8864 25.8413C58.5786 26.2562 58.3332 26.6035 58.1529 26.8809L58.9913 27.4259ZM59.6888 26.4382C59.949 26.0894 60.334 25.7607 60.8658 25.4612L60.375 24.5899C59.7534 24.94 59.2501 25.3538 58.8872 25.8402L59.6888 26.4382ZM60.8674 25.4603C61.3477 25.1874 62.0404 25.0284 62.9869 25.0284V24.0284C61.9447 24.0284 61.0597 24.2009 60.3734 24.5908L60.8674 25.4603ZM62.9869 25.0284C64.1852 25.0284 65.2215 25.3266 66.1133 25.9111L66.6615 25.0747C65.5912 24.3732 64.3605 24.0284 62.9869 24.0284V25.0284ZM66.1133 25.9111C67.0083 26.4976 67.7158 27.3334 68.2311 28.4386L69.1375 28.016C68.5524 26.7613 67.7287 25.7742 66.6615 25.0747L66.1133 25.9111ZM68.2311 28.4386C68.7442 29.5388 69.0096 30.8557 69.0096 32.4034H70.0096C70.0096 30.7428 69.7248 29.2756 69.1375 28.016L68.2311 28.4386ZM69.0096 32.4034C69.0096 33.965 68.744 35.2921 68.2307 36.399L69.1379 36.8197C69.725 35.5536 70.0096 34.0767 70.0096 32.4034H69.0096ZM68.2311 36.3981C67.7152 37.5045 67.0099 38.3444 66.12 38.9377L66.6747 39.7697C67.7337 39.0637 68.553 38.0741 69.1375 36.8207L68.2311 36.3981ZM66.122 38.9364C65.2366 39.5206 64.2107 39.8182 63.0266 39.8182V40.8182C64.3881 40.8182 65.6092 40.4728 66.6728 39.771L66.122 38.9364ZM63.0266 39.8182C62.094 39.8182 61.4012 39.6627 60.9112 39.393L60.429 40.269C61.1189 40.6488 61.9972 40.8182 63.0266 40.8182V39.8182ZM60.915 39.395C60.368 39.0878 59.9724 38.7545 59.7056 38.4044L58.9102 39.0104C59.2798 39.4955 59.7922 39.9113 60.4252 40.2669L60.915 39.395ZM59.7079 38.4074C59.3939 37.9887 59.1585 37.6507 58.9972 37.3902L58.147 37.9166C58.3304 38.2129 58.5855 38.5776 58.9079 39.0074L59.7079 38.4074ZM58.5721 37.1534H58.3732V38.1534H58.5721V37.1534ZM57.8732 37.6534V45.7273H58.8732V37.6534H57.8732ZM58.3732 45.2273H56.0266V46.2273H58.3732V45.2273ZM57.8335 32.3636C57.8335 33.5651 58.0095 34.6453 58.3737 35.5952L59.3074 35.2372C58.9955 34.4238 58.8335 33.469 58.8335 32.3636H57.8335ZM58.3742 35.5964C58.7404 36.5444 59.2853 37.3106 60.0182 37.8715L60.626 37.0774C60.0597 36.644 59.6168 36.038 59.307 35.236L58.3742 35.5964ZM60.0208 37.8735C60.7703 38.4394 61.6761 38.7102 62.7085 38.7102V37.7102C61.8582 37.7102 61.1731 37.4905 60.6234 37.0754L60.0208 37.8735ZM62.7085 38.7102C63.7814 38.7102 64.7146 38.4256 65.4739 37.8274L64.855 37.0419C64.3017 37.4778 63.5976 37.7102 62.7085 37.7102V38.7102ZM65.4744 37.827C66.2166 37.2406 66.7642 36.4594 67.1239 35.5027L66.1879 35.1508C65.8847 35.9573 65.438 36.5814 64.8545 37.0423L65.4744 37.827ZM67.1232 35.5046C67.4858 34.5519 67.663 33.5029 67.663 32.3636H66.663C66.663 33.3986 66.5022 34.325 66.1886 35.1489L67.1232 35.5046ZM67.663 32.3636C67.663 31.2383 67.4893 30.2083 67.1325 29.2807L66.1992 29.6397C66.5053 30.4357 66.663 31.3413 66.663 32.3636H67.663ZM67.1342 29.2851C66.7801 28.3386 66.2333 27.5712 65.4868 27.0039L64.8818 27.8001C65.4611 28.2404 65.9019 28.8451 66.1975 29.6354L67.1342 29.2851ZM65.4913 27.0073C64.731 26.416 63.7914 26.1364 62.7085 26.1364V27.1364C63.6141 27.1364 64.3251 27.3672 64.8773 27.7967L65.4913 27.0073ZM62.7085 26.1364C61.6661 26.1364 60.7541 26.4021 60.0035 26.9612L60.6009 27.7632C61.1495 27.3545 61.8417 27.1364 62.7085 27.1364V26.1364ZM60.0062 26.9593C59.2687 27.5011 58.7246 28.2535 58.3639 29.1912L59.2973 29.5502C59.5995 28.7645 60.0364 28.1779 60.5982 27.7652L60.0062 26.9593ZM58.3644 29.19C58.0059 30.1149 57.8335 31.1762 57.8335 32.3636H58.8335C58.8335 31.2708 58.9924 30.3368 59.2968 29.5514L58.3644 29.19ZM74.9485 39.8111L74.7356 40.2635L74.7387 40.2649L74.9485 39.8111ZM73.0692 38.2102L72.652 38.4858L72.6532 38.4876L73.0692 38.2102ZM72.8903 33.5369L73.3125 33.8047L73.314 33.8024L72.8903 33.5369ZM74.2724 32.2443L74.0347 31.8044L74.2724 32.2443ZM76.1815 31.5483L76.2885 32.0367L76.2919 32.036L76.1815 31.5483ZM78.2994 31.1705L78.2356 30.6745L78.2345 30.6747L78.2994 31.1705ZM80.5565 30.902L80.6079 31.3994L80.6129 31.3988L80.5565 30.902ZM81.8292 30.5739L81.5846 30.1378L81.58 30.1404L81.8292 30.5739ZM81.4315 27.4119L81.0736 27.7611L81.0757 27.7633L81.4315 27.4119ZM76.3803 27.3324L76.6856 27.7284L76.3803 27.3324ZM75.038 28.9034L74.8698 29.3743L75.2994 29.5277L75.4915 29.114L75.038 28.9034ZM72.8107 28.108L72.3512 27.911L72.1416 28.3999L72.6426 28.5788L72.8107 28.108ZM74.4016 25.9403L74.7091 26.3346L74.7097 26.3342L74.4016 25.9403ZM76.5891 24.8466L76.7152 25.3305L76.718 25.3297L76.5891 24.8466ZM80.6261 24.7074L80.5339 25.1989L80.5398 25.1999L80.6261 24.7074ZM82.4854 25.4134L82.2282 25.8421L82.2303 25.8433L82.4854 25.4134ZM83.9869 27.0341L83.5488 27.2752L83.9869 27.0341ZM84.5835 40V40.5H85.0835V40H84.5835ZM82.2369 40H81.7369V40.5H82.2369V40ZM82.2369 37.9318H82.7369V37.4318H82.2369V37.9318ZM82.1175 37.9318V37.4318H81.8029L81.6668 37.7155L82.1175 37.9318ZM81.3221 38.9957L81.6788 39.3461L81.3221 38.9957ZM79.8406 39.9602L79.643 39.5009L79.8406 39.9602ZM80.288 37.7031L80.0414 37.2682L80.0394 37.2693L80.288 37.7031ZM81.7397 36.2912L81.3062 36.042L81.304 36.0458L81.7397 36.2912ZM82.2369 32.3239H82.7369V30.9428L81.8527 32.0038L82.2369 32.3239ZM81.5806 32.652L81.7154 33.1335L81.7217 33.1317L81.5806 32.652ZM80.4272 32.9006L80.5032 33.3948L80.5094 33.3938L80.4272 32.9006ZM79.1644 33.0795L79.2214 33.5763L79.2284 33.5754L79.1644 33.0795ZM78.18 33.1989L78.2447 33.6947L78.2453 33.6946L78.18 33.1989ZM76.4698 33.5866L76.6261 34.0616L76.6297 34.0604L76.4698 33.5866ZM75.1971 34.3722L74.83 34.0327L74.8297 34.033L75.1971 34.3722ZM75.6246 37.6335L75.34 38.0447L75.3452 38.0482L75.6246 37.6335ZM77.5835 39.858C76.6798 39.858 75.8742 39.6881 75.1583 39.3572L74.7387 40.2649C75.6005 40.6632 76.5515 40.858 77.5835 40.858V39.858ZM75.1614 39.3587C74.4513 39.0245 73.8966 38.5499 73.4853 37.9329L72.6532 38.4876C73.1699 39.2626 73.868 39.8552 74.7356 40.2635L75.1614 39.3587ZM73.4865 37.9347C73.0856 37.3277 72.8732 36.5792 72.8732 35.6648H71.8732C71.8732 36.739 72.1249 37.6875 72.652 38.4858L73.4865 37.9347ZM72.8732 35.6648C72.8732 34.8516 73.0338 34.2442 73.3125 33.8047L72.468 33.2692C72.0574 33.9167 71.8732 34.728 71.8732 35.6648H72.8732ZM73.314 33.8024C73.6123 33.3262 74.0086 32.9551 74.51 32.6842L74.0347 31.8044C73.3827 32.1566 72.8576 32.6473 72.4666 33.2715L73.314 33.8024ZM74.51 32.6842C75.0422 32.3967 75.6341 32.18 76.2884 32.0367L76.0745 31.0599C75.3368 31.2215 74.6559 31.4688 74.0347 31.8044L74.51 32.6842ZM76.2919 32.036C76.9796 31.8802 77.6704 31.757 78.3642 31.6662L78.2345 30.6747C77.5098 30.7695 76.7886 30.8982 76.071 31.0606L76.2919 32.036ZM78.3631 31.6664C79.2892 31.5473 80.037 31.4584 80.6079 31.3993L80.505 30.4046C79.9225 30.4649 79.1656 30.555 78.2356 30.6745L78.3631 31.6664ZM80.6129 31.3988C81.2132 31.3306 81.7216 31.2125 82.0784 31.0073L81.58 30.1404C81.4065 30.2402 81.0664 30.3408 80.5 30.4052L80.6129 31.3988ZM82.0738 31.0099C82.5393 30.7488 82.7369 30.2916 82.7369 29.7784H81.7369C81.7369 30.0209 81.6626 30.094 81.5846 30.1378L82.0738 31.0099ZM82.7369 29.7784V29.6989H81.7369V29.7784H82.7369ZM82.7369 29.6989C82.7369 28.6253 82.4408 27.7222 81.7872 27.0606L81.0757 27.7633C81.496 28.1888 81.7369 28.8103 81.7369 29.6989H82.7369ZM81.7894 27.0628C81.1311 26.3881 80.1728 26.0966 79.0153 26.0966V27.0966C80.0187 27.0966 80.6712 27.3487 81.0736 27.7611L81.7894 27.0628ZM79.0153 26.0966C77.8273 26.0966 76.8276 26.3563 76.0751 26.9364L76.6856 27.7284C77.2058 27.3274 77.9628 27.0966 79.0153 27.0966V26.0966ZM76.0751 26.9364C75.3941 27.4613 74.8856 28.0442 74.5845 28.6929L75.4915 29.114C75.7074 28.6489 76.0939 28.1845 76.6856 27.7284L76.0751 26.9364ZM75.2062 28.4325L72.9789 27.6371L72.6426 28.5788L74.8698 29.3743L75.2062 28.4325ZM73.2703 28.3049C73.6415 27.4389 74.125 26.7903 74.7091 26.3346L74.0941 25.5461C73.3526 26.1245 72.7755 26.921 72.3512 27.911L73.2703 28.3049ZM74.7097 26.3342C75.3277 25.8508 75.9954 25.518 76.7152 25.3304L76.4631 24.3627C75.6052 24.5862 74.8146 24.9825 74.0936 25.5465L74.7097 26.3342ZM76.718 25.3297C77.4743 25.128 78.2132 25.0284 78.9357 25.0284V24.0284C78.1203 24.0284 77.2948 24.1409 76.4603 24.3635L76.718 25.3297ZM78.9357 25.0284C79.3874 25.0284 79.9189 25.0835 80.5339 25.1988L80.7182 24.2159C80.0605 24.0926 79.4652 24.0284 78.9357 24.0284V25.0284ZM80.5398 25.1999C81.1185 25.3013 81.6807 25.5136 82.2282 25.8421L82.7427 24.9846C82.097 24.5972 81.4197 24.3388 80.7124 24.2149L80.5398 25.1999ZM82.2303 25.8433C82.7442 26.1483 83.1865 26.6169 83.5488 27.2752L84.4249 26.793C83.9918 26.0062 83.4331 25.3943 82.7406 24.9834L82.2303 25.8433ZM83.5488 27.2752C83.8912 27.8972 84.0835 28.7719 84.0835 29.9375H85.0835C85.0835 28.677 84.878 27.6161 84.4249 26.793L83.5488 27.2752ZM84.0835 29.9375V40H85.0835V29.9375H84.0835ZM84.5835 39.5H82.2369V40.5H84.5835V39.5ZM82.7369 40V37.9318H81.7369V40H82.7369ZM82.2369 37.4318H82.1175V38.4318H82.2369V37.4318ZM81.6668 37.7155C81.5394 37.9807 81.3136 38.2909 80.9654 38.6453L81.6788 39.3461C82.073 38.9449 82.3775 38.5458 82.5683 38.1482L81.6668 37.7155ZM80.9654 38.6453C80.65 38.9663 80.2152 39.2548 79.643 39.5009L80.0381 40.4195C80.6989 40.1353 81.2517 39.7808 81.6788 39.3461L80.9654 38.6453ZM79.643 39.5009C79.1056 39.732 78.4247 39.858 77.5835 39.858V40.858C78.5188 40.858 79.3425 40.7187 80.0381 40.4195L79.643 39.5009ZM77.9414 38.75C78.9339 38.75 79.807 38.555 80.5366 38.137L80.0394 37.2693C79.4963 37.5805 78.805 37.75 77.9414 37.75V38.75ZM80.5346 38.1381C81.2472 37.734 81.8009 37.2015 82.1754 36.5366L81.304 36.0458C81.0289 36.5343 80.6148 36.9431 80.0414 37.2682L80.5346 38.1381ZM82.1732 36.5403C82.5462 35.8914 82.7369 35.1994 82.7369 34.4716H81.7369C81.7369 35.0165 81.5961 35.5376 81.3062 36.0421L82.1732 36.5403ZM82.7369 34.4716V32.3239H81.7369V34.4716H82.7369ZM81.8527 32.0038C81.8653 31.9888 81.8539 32.0085 81.7746 32.0482C81.7005 32.0852 81.5914 32.1276 81.4395 32.1723L81.7217 33.1317C81.9079 33.0769 82.0772 33.0149 82.2218 32.9426C82.3613 32.8729 82.509 32.7783 82.621 32.644L81.8527 32.0038ZM81.4458 32.1705C81.1358 32.2573 80.7695 32.3366 80.345 32.4074L80.5094 33.3938C80.9599 33.3187 81.3626 33.2323 81.7154 33.1335L81.4458 32.1705ZM80.3512 32.4064C79.9241 32.4721 79.5072 32.5312 79.1004 32.5837L79.2284 33.5754C79.6436 33.5219 80.0686 33.4616 80.5032 33.3948L80.3512 32.4064ZM79.1074 32.5828C78.7017 32.6294 78.3706 32.6695 78.1148 32.7031L78.2453 33.6946C78.4933 33.662 78.8184 33.6225 79.2214 33.5763L79.1074 32.5828ZM78.1154 32.7031C77.4763 32.7864 76.874 32.9225 76.3099 33.1129L76.6297 34.0604C77.1262 33.8928 77.6641 33.7704 78.2447 33.6947L78.1154 32.7031ZM76.3135 33.1117C75.7216 33.3065 75.2206 33.6101 74.83 34.0327L75.5642 34.7116C75.8231 34.4315 76.1707 34.2115 76.6261 34.0616L76.3135 33.1117ZM74.8297 34.033C74.4049 34.4932 74.2198 35.0972 74.2198 35.7841H75.2198C75.2198 35.2778 75.3529 34.9405 75.5645 34.7113L74.8297 34.033ZM74.2198 35.7841C74.2198 36.7422 74.5853 37.5221 75.34 38.0446L75.9092 37.2224C75.4576 36.9097 75.2198 36.4567 75.2198 35.7841H74.2198ZM75.3452 38.0482C76.0574 38.5281 76.9341 38.75 77.9414 38.75V37.75C77.0794 37.75 76.4116 37.5609 75.9041 37.2189L75.3452 38.0482ZM88.8665 40H88.3665V40.5H88.8665V40ZM88.8665 24.7273V24.2273H88.3665V24.7273H88.8665ZM91.2131 24.7273H91.7131V24.2273H91.2131V24.7273ZM91.2131 31.3693H90.7131V31.8693H91.2131V31.3693ZM92.7642 31.3693V31.8693H92.9997L93.1496 31.6878L92.7642 31.3693ZM98.2528 24.7273V24.2273H98.0174L97.8674 24.4088L98.2528 24.7273ZM101.276 24.7273L101.659 25.0484L102.347 24.2273H101.276V24.7273ZM95.1108 32.0852L94.7275 31.7641L94.4664 32.0757L94.7183 32.3949L95.1108 32.0852ZM101.355 40V40.5H102.386L101.748 39.6903L101.355 40ZM98.3324 40L97.9377 40.307L98.0878 40.5H98.3324V40ZM93.321 33.5568L93.7157 33.2498L93.5656 33.0568H93.321V33.5568ZM91.2131 33.5568V33.0568H90.7131V33.5568H91.2131ZM91.2131 40V40.5H91.7131V40H91.2131ZM89.3665 40V24.7273H88.3665V40H89.3665ZM88.8665 25.2273H91.2131V24.2273H88.8665V25.2273ZM90.7131 24.7273V31.3693H91.7131V24.7273H90.7131ZM91.2131 31.8693H92.7642V30.8693H91.2131V31.8693ZM93.1496 31.6878L98.6383 25.0458L97.8674 24.4088L92.3788 31.0508L93.1496 31.6878ZM98.2528 25.2273H101.276V24.2273H98.2528V25.2273ZM100.892 24.4062L94.7275 31.7641L95.4941 32.4063L101.659 25.0484L100.892 24.4062ZM94.7183 32.3949L100.963 40.3097L101.748 39.6903L95.5033 31.7755L94.7183 32.3949ZM101.355 39.5H98.3324V40.5H101.355V39.5ZM98.7271 39.693L93.7157 33.2498L92.9263 33.8638L97.9377 40.307L98.7271 39.693ZM93.321 33.0568H91.2131V34.0568H93.321V33.0568ZM90.7131 33.5568V40H91.7131V33.5568H90.7131ZM91.2131 39.5H88.8665V40.5H91.2131V39.5ZM105.765 39.8111L105.552 40.2635L105.555 40.2649L105.765 39.8111ZM103.886 38.2102L103.468 38.4858L103.47 38.4876L103.886 38.2102ZM103.707 33.5369L104.129 33.8047L104.13 33.8024L103.707 33.5369ZM105.089 32.2443L104.851 31.8044L105.089 32.2443ZM106.998 31.5483L107.105 32.0367L107.108 32.036L106.998 31.5483ZM109.116 31.1705L109.052 30.6745L109.051 30.6747L109.116 31.1705ZM111.373 30.902L111.424 31.3994L111.429 31.3988L111.373 30.902ZM112.646 30.5739L112.401 30.1378L112.396 30.1404L112.646 30.5739ZM112.248 27.4119L111.89 27.7611L111.892 27.7633L112.248 27.4119ZM107.197 27.3324L107.502 27.7284L107.197 27.3324ZM105.854 28.9034L105.686 29.3743L106.116 29.5277L106.308 29.114L105.854 28.9034ZM103.627 28.108L103.168 27.911L102.958 28.3999L103.459 28.5788L103.627 28.108ZM105.218 25.9403L105.526 26.3346L105.526 26.3342L105.218 25.9403ZM107.406 24.8466L107.532 25.3305L107.534 25.3297L107.406 24.8466ZM111.442 24.7074L111.35 25.1989L111.356 25.1999L111.442 24.7074ZM113.302 25.4134L113.045 25.8421L113.047 25.8433L113.302 25.4134ZM114.803 27.0341L114.365 27.2752L114.803 27.0341ZM115.4 40V40.5H115.9V40H115.4ZM113.053 40H112.553V40.5H113.053V40ZM113.053 37.9318H113.553V37.4318H113.053V37.9318ZM112.934 37.9318V37.4318H112.619L112.483 37.7155L112.934 37.9318ZM112.138 38.9957L112.495 39.3461L112.138 38.9957ZM110.657 39.9602L110.459 39.5009L110.657 39.9602ZM111.104 37.7031L110.858 37.2682L110.856 37.2693L111.104 37.7031ZM112.556 36.2912L112.123 36.042L112.12 36.0458L112.556 36.2912ZM113.053 32.3239H113.553V30.9428L112.669 32.0038L113.053 32.3239ZM112.397 32.652L112.532 33.1335L112.538 33.1317L112.397 32.652ZM111.244 32.9006L111.32 33.3948L111.326 33.3938L111.244 32.9006ZM109.981 33.0795L110.038 33.5763L110.045 33.5754L109.981 33.0795ZM108.996 33.1989L109.061 33.6947L109.062 33.6946L108.996 33.1989ZM107.286 33.5866L107.443 34.0616L107.446 34.0604L107.286 33.5866ZM106.013 34.3722L105.646 34.0327L105.646 34.033L106.013 34.3722ZM106.441 37.6335L106.156 38.0447L106.162 38.0482L106.441 37.6335ZM108.4 39.858C107.496 39.858 106.691 39.6881 105.975 39.3572L105.555 40.2649C106.417 40.6632 107.368 40.858 108.4 40.858V39.858ZM105.978 39.3587C105.268 39.0245 104.713 38.5499 104.302 37.9329L103.47 38.4876C103.986 39.2626 104.684 39.8552 105.552 40.2635L105.978 39.3587ZM104.303 37.9347C103.902 37.3277 103.69 36.5792 103.69 35.6648H102.69C102.69 36.739 102.941 37.6875 103.468 38.4858L104.303 37.9347ZM103.69 35.6648C103.69 34.8516 103.85 34.2442 104.129 33.8047L103.284 33.2692C102.874 33.9167 102.69 34.728 102.69 35.6648H103.69ZM104.13 33.8024C104.429 33.3262 104.825 32.9551 105.326 32.6842L104.851 31.8044C104.199 32.1566 103.674 32.6473 103.283 33.2715L104.13 33.8024ZM105.326 32.6842C105.859 32.3967 106.451 32.18 107.105 32.0367L106.891 31.0599C106.153 31.2215 105.472 31.4688 104.851 31.8044L105.326 32.6842ZM107.108 32.036C107.796 31.8802 108.487 31.757 109.181 31.6662L109.051 30.6747C108.326 30.7695 107.605 30.8982 106.887 31.0606L107.108 32.036ZM109.18 31.6664C110.106 31.5473 110.853 31.4584 111.424 31.3993L111.321 30.4046C110.739 30.4649 109.982 30.555 109.052 30.6745L109.18 31.6664ZM111.429 31.3988C112.03 31.3306 112.538 31.2125 112.895 31.0073L112.396 30.1404C112.223 30.2402 111.883 30.3408 111.316 30.4052L111.429 31.3988ZM112.89 31.0099C113.356 30.7488 113.553 30.2916 113.553 29.7784H112.553C112.553 30.0209 112.479 30.094 112.401 30.1378L112.89 31.0099ZM113.553 29.7784V29.6989H112.553V29.7784H113.553ZM113.553 29.6989C113.553 28.6253 113.257 27.7222 112.604 27.0606L111.892 27.7633C112.312 28.1888 112.553 28.8103 112.553 29.6989H113.553ZM112.606 27.0628C111.948 26.3881 110.989 26.0966 109.832 26.0966V27.0966C110.835 27.0966 111.488 27.3487 111.89 27.7611L112.606 27.0628ZM109.832 26.0966C108.644 26.0966 107.644 26.3563 106.891 26.9364L107.502 27.7284C108.022 27.3274 108.779 27.0966 109.832 27.0966V26.0966ZM106.891 26.9364C106.21 27.4613 105.702 28.0442 105.401 28.6929L106.308 29.114C106.524 28.6489 106.91 28.1845 107.502 27.7284L106.891 26.9364ZM106.023 28.4325L103.795 27.6371L103.459 28.5788L105.686 29.3743L106.023 28.4325ZM104.087 28.3049C104.458 27.4389 104.941 26.7903 105.526 26.3346L104.911 25.5461C104.169 26.1245 103.592 26.921 103.168 27.911L104.087 28.3049ZM105.526 26.3342C106.144 25.8508 106.812 25.518 107.532 25.3304L107.279 24.3627C106.422 24.5862 105.631 24.9825 104.91 25.5465L105.526 26.3342ZM107.534 25.3297C108.291 25.128 109.03 25.0284 109.752 25.0284V24.0284C108.937 24.0284 108.111 24.1409 107.277 24.3635L107.534 25.3297ZM109.752 25.0284C110.204 25.0284 110.735 25.0835 111.35 25.1988L111.535 24.2159C110.877 24.0926 110.282 24.0284 109.752 24.0284V25.0284ZM111.356 25.1999C111.935 25.3013 112.497 25.5136 113.045 25.8421L113.559 24.9846C112.913 24.5972 112.236 24.3388 111.529 24.2149L111.356 25.1999ZM113.047 25.8433C113.561 26.1483 114.003 26.6169 114.365 27.2752L115.241 26.793C114.808 26.0062 114.249 25.3943 113.557 24.9834L113.047 25.8433ZM114.365 27.2752C114.708 27.8972 114.9 28.7719 114.9 29.9375H115.9C115.9 28.677 115.694 27.6161 115.241 26.793L114.365 27.2752ZM114.9 29.9375V40H115.9V29.9375H114.9ZM115.4 39.5H113.053V40.5H115.4V39.5ZM113.553 40V37.9318H112.553V40H113.553ZM113.053 37.4318H112.934V38.4318H113.053V37.4318ZM112.483 37.7155C112.356 37.9807 112.13 38.2909 111.782 38.6453L112.495 39.3461C112.889 38.9449 113.194 38.5458 113.385 38.1482L112.483 37.7155ZM111.782 38.6453C111.466 38.9663 111.032 39.2548 110.459 39.5009L110.855 40.4195C111.515 40.1353 112.068 39.7808 112.495 39.3461L111.782 38.6453ZM110.459 39.5009C109.922 39.732 109.241 39.858 108.4 39.858V40.858C109.335 40.858 110.159 40.7187 110.855 40.4195L110.459 39.5009ZM108.758 38.75C109.75 38.75 110.623 38.555 111.353 38.137L110.856 37.2693C110.313 37.5805 109.621 37.75 108.758 37.75V38.75ZM111.351 38.1381C112.064 37.734 112.617 37.2015 112.992 36.5366L112.12 36.0458C111.845 36.5343 111.431 36.9431 110.858 37.2682L111.351 38.1381ZM112.99 36.5403C113.363 35.8914 113.553 35.1994 113.553 34.4716H112.553C112.553 35.0165 112.413 35.5376 112.123 36.0421L112.99 36.5403ZM113.553 34.4716V32.3239H112.553V34.4716H113.553ZM112.669 32.0038C112.682 31.9888 112.67 32.0085 112.591 32.0482C112.517 32.0852 112.408 32.1276 112.256 32.1723L112.538 33.1317C112.724 33.0769 112.894 33.0149 113.038 32.9426C113.178 32.8729 113.325 32.7783 113.437 32.644L112.669 32.0038ZM112.262 32.1705C111.952 32.2573 111.586 32.3366 111.161 32.4074L111.326 33.3938C111.776 33.3187 112.179 33.2323 112.532 33.1335L112.262 32.1705ZM111.168 32.4064C110.741 32.4721 110.324 32.5312 109.917 32.5837L110.045 33.5754C110.46 33.5219 110.885 33.4616 111.32 33.3948L111.168 32.4064ZM109.924 32.5828C109.518 32.6294 109.187 32.6695 108.931 32.7031L109.062 33.6946C109.31 33.662 109.635 33.6225 110.038 33.5763L109.924 32.5828ZM108.932 32.7031C108.293 32.7864 107.69 32.9225 107.126 33.1129L107.446 34.0604C107.943 33.8928 108.481 33.7704 109.061 33.6947L108.932 32.7031ZM107.13 33.1117C106.538 33.3065 106.037 33.6101 105.646 34.0327L106.381 34.7116C106.64 34.4315 106.987 34.2115 107.443 34.0616L107.13 33.1117ZM105.646 34.033C105.221 34.4932 105.036 35.0972 105.036 35.7841H106.036C106.036 35.2778 106.169 34.9405 106.381 34.7113L105.646 34.033ZM105.036 35.7841C105.036 36.7422 105.402 37.5221 106.156 38.0446L106.726 37.2224C106.274 36.9097 106.036 36.4567 106.036 35.7841H105.036ZM106.162 38.0482C106.874 38.5281 107.75 38.75 108.758 38.75V37.75C107.896 37.75 107.228 37.5609 106.72 37.2189L106.162 38.0482ZM117.605 26.9148H117.105V27.4148H117.605V26.9148ZM117.605 24.7273V24.2273H117.105V24.7273H117.605ZM130.014 24.7273H130.514V24.2273H130.014V24.7273ZM130.014 26.9148V27.4148H130.514V26.9148H130.014ZM125.002 26.9148V26.4148H124.502V26.9148H125.002ZM125.002 40V40.5H125.502V40H125.002ZM122.656 40H122.156V40.5H122.656V40ZM122.656 26.9148H123.156V26.4148H122.656V26.9148ZM118.105 26.9148V24.7273H117.105V26.9148H118.105ZM117.605 25.2273H130.014V24.2273H117.605V25.2273ZM129.514 24.7273V26.9148H130.514V24.7273H129.514ZM130.014 26.4148H125.002V27.4148H130.014V26.4148ZM124.502 26.9148V40H125.502V26.9148H124.502ZM125.002 39.5H122.656V40.5H125.002V39.5ZM123.156 40V26.9148H122.156V40H123.156ZM122.656 26.4148H117.605V27.4148H122.656V26.4148Z" fill="black"/>
</g>
<defs>
<filter id="filter0_d_0_1" x="0" y="0" width="50" height="10" filterUnits="userSpaceOnUse" color-interpolation-filters="sRGB">
<feFlood flood-opacity="0" result="BackgroundImageFix"/>
<feColorMatrix in="SourceAlpha" type="matrix" values="0 0 0 0 0 0 0 0 0 0 0 0 0 0 0 0 0 0 127 0" result="hardAlpha"/>
<feOffset dy="4"/>
<feGaussianBlur stdDeviation="2"/>
<feComposite in2="hardAlpha" operator="out"/>
<feColorMatrix type="matrix" values="0 0 0 0 0 0 0 0 0 0 0 0 0 0 0 0 0 0 0.25 0"/>
<feBlend mode="normal" in2="BackgroundImageFix" result="effect1_dropShadow_0_1"/>
<feBlend mode="normal" in="SourceGraphic" in2="effect1_dropShadow_0_1" result="shape"/>
</filter>
<filter id="filter1_d_0_1" x="0" y="0" width="10" height="53" filterUnits="userSpaceOnUse" color-interpolation-filters="sRGB">
<feFlood flood-opacity="0" result="BackgroundImageFix"/>
<feColorMatrix in="SourceAlpha" type="matrix" values="0 0 0 0 0 0 0 0 0 0 0 0 0 0 0 0 0 0 127 0" result="hardAlpha"/>
<feOffset dy="4"/>
<feGaussianBlur stdDeviation="2"/>
<feComposite in2="hardAlpha" operator="out"/>
<feColorMatrix type="matrix" values="0 0 0 0 0 0 0 0 0 0 0 0 0 0 0 0 0 0 0.25 0"/>
<feBlend mode="normal" in2="BackgroundImageFix" result="effect1_dropShadow_0_1"/>
<feBlend mode="normal" in="SourceGraphic" in2="effect1_dropShadow_0_1" result="shape"/>
</filter>
<filter id="filter2_d_0_1" x="41" y="0" width="10" height="53" filterUnits="userSpaceOnUse" color-interpolation-filters="sRGB">
<feFlood flood-opacity="0" result="BackgroundImageFix"/>
<feColorMatrix in="SourceAlpha" type="matrix" values="0 0 0 0 0 0 0 0 0 0 0 0 0 0 0 0 0 0 127 0" result="hardAlpha"/>
<feOffset dy="4"/>
<feGaussianBlur stdDeviation="2"/>
<feComposite in2="hardAlpha" operator="out"/>
<feColorMatrix type="matrix" values="0 0 0 0 0 0 0 0 0 0 0 0 0 0 0 0 0 0 0.25 0"/>
<feBlend mode="normal" in2="BackgroundImageFix" result="effect1_dropShadow_0_1"/>
<feBlend mode="normal" in="SourceGraphic" in2="effect1_dropShadow_0_1" result="shape"/>
</filter>
<filter id="filter3_d_0_1" x="0" y="43" width="21" height="10" filterUnits="userSpaceOnUse" color-interpolation-filters="sRGB">
<feFlood flood-opacity="0" result="BackgroundImageFix"/>
<feColorMatrix in="SourceAlpha" type="matrix" values="0 0 0 0 0 0 0 0 0 0 0 0 0 0 0 0 0 0 127 0" result="hardAlpha"/>
<feOffset dy="4"/>
<feGaussianBlur stdDeviation="2"/>
<feComposite in2="hardAlpha" operator="out"/>
<feColorMatrix type="matrix" values="0 0 0 0 0 0 0 0 0 0 0 0 0 0 0 0 0 0 0.25 0"/>
<feBlend mode="normal" in2="BackgroundImageFix" result="effect1_dropShadow_0_1"/>
<feBlend mode="normal" in="SourceGraphic" in2="effect1_dropShadow_0_1" result="shape"/>
</filter>
<filter id="filter4_d_0_1" x="15" y="43" width="34" height="10" filterUnits="userSpaceOnUse" color-interpolation-filters="sRGB">
<feFlood flood-opacity="0" result="BackgroundImageFix"/>
<feColorMatrix in="SourceAlpha" type="matrix" values="0 0 0 0 0 0 0 0 0 0 0 0 0 0 0 0 0 0 127 0" result="hardAlpha"/>
<feOffset dy="4"/>
<feGaussianBlur stdDeviation="2"/>
<feComposite in2="hardAlpha" operator="out"/>
<feColorMatrix type="matrix" values="0 0 0 0 0 0 0 0 0 0 0 0 0 0 0 0 0 0 0.25 0"/>
<feBlend mode="normal" in2="BackgroundImageFix" result="effect1_dropShadow_0_1"/>
<feBlend mode="normal" in="SourceGraphic" in2="effect1_dropShadow_0_1" result="shape"/>
</filter>
<filter id="filter5_d_0_1" x="13" y="15" width="36" height="10" filterUnits="userSpaceOnUse" color-interpolation-filters="sRGB">
<feFlood flood-opacity="0" result="BackgroundImageFix"/>
<feColorMatrix in="SourceAlpha" type="matrix" values="0 0 0 0 0 0 0 0 0 0 0 0 0 0 0 0 0 0 127 0" result="hardAlpha"/>
<feOffset dy="4"/>
<feGaussianBlur stdDeviation="2"/>
<feComposite in2="hardAlpha" operator="out"/>
<feColorMatrix type="matrix" values="0 0 0 0 0 0 0 0 0 0 0 0 0 0 0 0 0 0 0.25 0"/>
<feBlend mode="normal" in2="BackgroundImageFix" result="effect1_dropShadow_0_1"/>
<feBlend mode="normal" in="SourceGraphic" in2="effect1_dropShadow_0_1" result="shape"/>
</filter>
<filter id="filter6_d_0_1" x="43" y="15" width="19" height="10" filterUnits="userSpaceOnUse" color-interpolation-filters="sRGB">
<feFlood flood-opacity="0" result="BackgroundImageFix"/>
<feColorMatrix in="SourceAlpha" type="matrix" values="0 0 0 0 0 0 0 0 0 0 0 0 0 0 0 0 0 0 127 0" result="hardAlpha"/>
<feOffset dy="4"/>
<feGaussianBlur stdDeviation="2"/>
<feComposite in2="hardAlpha" operator="out"/>
<feColorMatrix type="matrix" values="0 0 0 0 0 0 0 0 0 0 0 0 0 0 0 0 0 0 0.25 0"/>
<feBlend mode="normal" in2="BackgroundImageFix" result="effect1_dropShadow_0_1"/>
<feBlend mode="normal" in="SourceGraphic" in2="effect1_dropShadow_0_1" result="shape"/>
</filter>
<filter id="filter7_d_0_1" x="13" y="16" width="10" height="37" filterUnits="userSpaceOnUse" color-interpolation-filters="sRGB">
<feFlood flood-opacity="0" result="BackgroundImageFix"/>
<feColorMatrix in="SourceAlpha" type="matrix" values="0 0 0 0 0 0 0 0 0 0 0 0 0 0 0 0 0 0 127 0" result="hardAlpha"/>
<feOffset dy="4"/>
<feGaussianBlur stdDeviation="2"/>
<feComposite in2="hardAlpha" operator="out"/>
<feColorMatrix type="matrix" values="0 0 0 0 0 0 0 0 0 0 0 0 0 0 0 0 0 0 0.25 0"/>
<feBlend mode="normal" in2="BackgroundImageFix" result="effect1_dropShadow_0_1"/>
<feBlend mode="normal" in="SourceGraphic" in2="effect1_dropShadow_0_1" result="shape"/>
</filter>
<filter id="filter8_d_0_1" x="13" y="45" width="10" height="20" filterUnits="userSpaceOnUse" color-interpolation-filters="sRGB">
<feFlood flood-opacity="0" result="BackgroundImageFix"/>
<feColorMatrix in="SourceAlpha" type="matrix" values="0 0 0 0 0 0 0 0 0 0 0 0 0 0 0 0 0 0 127 0" result="hardAlpha"/>
<feOffset dy="4"/>
<feGaussianBlur stdDeviation="2"/>
<feComposite in2="hardAlpha" operator="out"/>
<feColorMatrix type="matrix" values="0 0 0 0 0 0 0 0 0 0 0 0 0 0 0 0 0 0 0.25 0"/>
<feBlend mode="normal" in2="BackgroundImageFix" result="effect1_dropShadow_0_1"/>
<feBlend mode="normal" in="SourceGraphic" in2="effect1_dropShadow_0_1" result="shape"/>
</filter>
<filter id="filter9_d_0_1" x="13" y="43" width="9" height="10" filterUnits="userSpaceOnUse" color-interpolation-filters="sRGB">
<feFlood flood-opacity="0" result="BackgroundImageFix"/>
<feColorMatrix in="SourceAlpha" type="matrix" values="0 0 0 0 0 0 0 0 0 0 0 0 0 0 0 0 0 0 127 0" result="hardAlpha"/>
<feOffset dy="4"/>
<feGaussianBlur stdDeviation="2"/>
<feComposite in2="hardAlpha" operator="out"/>
<feColorMatrix type="matrix" values="0 0 0 0 0 0 0 0 0 0 0 0 0 0 0 0 0 0 0.25 0"/>
<feBlend mode="normal" in2="BackgroundImageFix" result="effect1_dropShadow_0_1"/>
<feBlend mode="normal" in="SourceGraphic" in2="effect1_dropShadow_0_1" result="shape"/>
</filter>
<filter id="filter10_d_0_1" x="52" y="16" width="10" height="50" filterUnits="userSpaceOnUse" color-interpolation-filters="sRGB">
<feFlood flood-opacity="0" result="BackgroundImageFix"/>
<feColorMatrix in="SourceAlpha" type="matrix" values="0 0 0 0 0 0 0 0 0 0 0 0 0 0 0 0 0 0 127 0" result="hardAlpha"/>
<feOffset dy="4"/>
<feGaussianBlur stdDeviation="2"/>
<feComposite in2="hardAlpha" operator="out"/>
<feColorMatrix type="matrix" values="0 0 0 0 0 0 0 0 0 0 0 0 0 0 0 0 0 0 0.25 0"/>
<feBlend mode="normal" in2="BackgroundImageFix" result="effect1_dropShadow_0_1"/>
<feBlend mode="normal" in="SourceGraphic" in2="effect1_dropShadow_0_1" result="shape"/>
</filter>
<filter id="filter11_d_0_1" x="13" y="56" width="48" height="10" filterUnits="userSpaceOnUse" color-interpolation-filters="sRGB">
<feFlood flood-opacity="0" result="BackgroundImageFix"/>
<feColorMatrix in="SourceAlpha" type="matrix" values="0 0 0 0 0 0 0 0 0 0 0 0 0 0 0 0 0 0 127 0" result="hardAlpha"/>
<feOffset dy="4"/>
<feGaussianBlur stdDeviation="2"/>
<feComposite in2="hardAlpha" operator="out"/>
<feColorMatrix type="matrix" values="0 0 0 0 0 0 0 0 0 0 0 0 0 0 0 0 0 0 0.25 0"/>
<feBlend mode="normal" in2="BackgroundImageFix" result="effect1_dropShadow_0_1"/>
<feBlend mode="normal" in="SourceGraphic" in2="effect1_dropShadow_0_1" result="shape"/>
</filter>
<filter id="filter12_d_0_1" x="18.4659" y="19.6364" width="115.548" height="34.0909" filterUnits="userSpaceOnUse" color-interpolation-filters="sRGB">
<feFlood flood-opacity="0" result="BackgroundImageFix"/>
<feColorMatrix in="SourceAlpha" type="matrix" values="0 0 0 0 0 0 0 0 0 0 0 0 0 0 0 0 0 0 127 0" result="hardAlpha"/>
<feOffset dy="4"/>
<feGaussianBlur stdDeviation="2"/>
<feComposite in2="hardAlpha" operator="out"/>
<feColorMatrix type="matrix" values="0 0 0 0 0 0 0 0 0 0 0 0 0 0 0 0 0 0 0.25 0"/>
<feBlend mode="normal" in2="BackgroundImageFix" result="effect1_dropShadow_0_1"/>
<feBlend mode="normal" in="SourceGraphic" in2="effect1_dropShadow_0_1" result="shape"/>
</filter>
</defs>
</svg>
